<svg t="1704511491634" class="icon" viewBox="0 0 1097 1024" version="1.1" xmlns="http://www.w3.org/2000/svg" p-id="1303" width="32" height="32"><path d="M588.05513 509.647779m-509.647779 0a509.647779 509.647779 0 1 0 1019.295559 0 509.647779 509.647779 0 1 0-1019.295559 0Z" fill="#FF8400" p-id="1304"></path><path d="M117.611026 705.666156s78.407351 156.814701-117.611026 235.222052c0 0 509.647779 156.814701 784.073507 39.203676S196.018377 588.05513 196.018377 588.05513l-39.203676 117.611026z" fill="#FF8400" p-id="1305"></path><path d="M866.401225 286.970904V226.98928h-375.963246v59.981624h156.814701v74.486983h-141.133231v389.684533h60.765696v-330.486984h80.759572V819.356815h61.941807V420.655436h80.759571v251.295559c0 12.545176-5.488515 19.209801-16.073507 19.209801l-43.124043-3.136294 16.465544 61.157734h46.652373c39.203675 0 56.845329-21.169985 56.84533-63.901991V361.457887H709.586524v-74.486983zM282.658499 294.811639h60.765697v354.401225H282.658499z" fill="#FFFFFF" p-id="1306"></path><path d="M395.173047 527.289433c0 114.474732-39.203675 198.762634-112.122511 251.295559l47.436447 41.163859c81.151608-61.157734 123.491577-159.166922 125.451761-292.459418V205.035222h-60.765697z" fill="#FFFFFF" p-id="1307"></path></svg>